<svg width="102" height="102" viewBox="0 0 102 102" fill="none" xmlns="http://www.w3.org/2000/svg">
<path d="M83.4376 48.8242L41.835 24.4431C41.3494 24.1585 40.7959 24.0057 40.2308 24.0002C39.6657 23.9946 39.1092 24.1366 38.6179 24.4115C38.1266 24.6865 37.7181 25.0848 37.4339 25.5657C37.1497 26.0466 37 26.5931 37 27.1495V74.9364C37.0007 75.4878 37.1482 76.0294 37.428 76.5071C37.7078 76.9848 38.1099 77.3819 38.5943 77.6587C39.0787 77.9355 39.6284 78.0823 40.1885 78.0845C40.7485 78.0867 41.2994 77.9442 41.786 77.6712L83.3883 54.2656C83.8737 53.9925 84.278 53.5988 84.5607 53.1239C84.8435 52.649 84.9949 52.1094 84.9999 51.559C85.0048 51.0085 84.8631 50.4663 84.589 49.9866C84.3148 49.5068 83.9176 49.1062 83.4372 48.8246L83.4376 48.8242ZM41.2652 73.1274V28.9962L79.6847 51.5121L41.2652 73.1274Z" fill="white"/>
<path d="M50.9999 102C61.0868 102 70.9471 99.0088 79.3341 93.4049C87.721 87.8009 94.2578 79.8358 98.1179 70.5168C101.978 61.1977 102.988 50.9433 101.02 41.0503C99.0521 31.1572 94.1948 22.0699 87.0622 14.9375C82.3265 10.2017 76.7043 6.44508 70.5167 3.88211C64.3291 1.31913 57.6972 -9.89235e-06 50.9998 0C37.4738 1.99787e-05 24.5018 5.37323 14.9375 14.9376C5.37315 24.5019 -1.99786e-05 37.474 0 51C1.99787e-05 64.526 5.37323 77.498 14.9376 87.0623C19.6624 91.8129 25.2824 95.5792 31.4725 98.1432C37.6626 100.707 44.2998 102.018 50.9999 102ZM50.9999 6.81804C75.3618 6.81804 95.1819 26.6379 95.1819 50.9998C95.1819 75.3617 75.3618 95.1818 50.9999 95.1818C26.638 95.1818 6.81815 75.3619 6.81815 50.9998C6.81815 26.6377 26.638 6.81804 50.9999 6.81804Z" fill="white"/>
</svg>
