<svg width="60" height="67" viewBox="0 0 60 67" fill="none" xmlns="http://www.w3.org/2000/svg">
<path d="M58.9599 47.344L52.4289 35.2864V22.7321C52.4289 10.1976 42.2313 0 29.6968 0C17.1623 0 6.96466 10.1976 6.96466 22.7321V35.2864L0.433354 47.3439C0.137165 47.8906 -0.0119074 48.5049 0.000743038 49.1266C0.0133935 49.7483 0.187333 50.356 0.505518 50.8902C0.823703 51.4245 1.27522 51.8669 1.81582 52.1741C2.35643 52.4813 2.96757 52.6429 3.58938 52.6429H16.5908C16.5552 53.0371 16.5359 53.4355 16.5359 53.8393C16.5359 57.3297 17.9225 60.6772 20.3906 63.1453C22.8587 65.6134 26.2062 67 29.6966 67C33.1871 67 36.5346 65.6134 39.0027 63.1453C41.4708 60.6772 42.8574 57.3297 42.8574 53.8393C42.8574 53.4355 42.8381 53.0371 42.8025 52.6429H55.8039C56.4257 52.6428 57.0367 52.4812 57.5773 52.1739C58.1178 51.8667 58.5692 51.4243 58.8873 50.8901C59.2055 50.3559 59.3794 49.7482 59.392 49.1266C59.4047 48.505 59.2556 47.8907 58.9595 47.344H58.9599ZM38.0718 53.8393C38.0727 54.9902 37.8364 56.129 37.3777 57.1845C36.9189 58.2401 36.2475 59.1897 35.4053 59.9742C34.5632 60.7587 33.5684 61.3612 32.483 61.7441C31.3976 62.127 30.245 62.282 29.097 62.1996C27.949 62.1172 26.8304 61.799 25.8108 61.265C24.7913 60.731 23.8928 59.9925 23.1713 59.0958C22.4499 58.199 21.9211 57.1632 21.6178 56.0529C21.3145 54.9427 21.2433 53.7818 21.4087 52.6429H37.9848C38.0423 53.0391 38.0714 53.4389 38.0718 53.8393ZM5.59804 47.8571L11.7504 36.4993V22.7321C11.7504 17.9725 13.6412 13.4077 17.0068 10.0421C20.3724 6.67649 24.9371 4.78571 29.6968 4.78571C34.4565 4.78571 39.0212 6.67649 42.3868 10.0421C45.7524 13.4077 47.6432 17.9725 47.6432 22.7321V36.4993L53.7953 47.8571H5.59804Z" fill="white"/>
</svg>
