<svg width="250" height="100" viewBox="0 0 250 100" fill="none" xmlns="http://www.w3.org/2000/svg">
<path d="M106.224 61V34.8182H113.281V44.7898H113.383C113.639 44.125 114.014 43.5156 114.508 42.9616C115.003 42.3991 115.616 41.9517 116.349 41.6193C117.082 41.2784 117.935 41.108 118.906 41.108C120.202 41.108 121.433 41.4531 122.601 42.1435C123.777 42.8338 124.731 43.9205 125.464 45.4034C126.206 46.8864 126.577 48.8125 126.577 51.1818C126.577 53.4489 126.223 55.3281 125.515 56.8196C124.817 58.3111 123.879 59.4233 122.703 60.1562C121.535 60.8892 120.253 61.2557 118.855 61.2557C117.935 61.2557 117.112 61.1065 116.388 60.8082C115.672 60.5014 115.058 60.0881 114.547 59.5682C114.044 59.0398 113.656 58.4432 113.383 57.7784H113.23V61H106.224ZM113.128 51.1818C113.128 52.1364 113.251 52.9631 113.498 53.6619C113.754 54.3523 114.112 54.8892 114.572 55.2727C115.041 55.6477 115.599 55.8352 116.247 55.8352C116.895 55.8352 117.444 55.652 117.896 55.2855C118.356 54.9105 118.706 54.3778 118.944 53.6875C119.192 52.9886 119.315 52.1534 119.315 51.1818C119.315 50.2102 119.192 49.3793 118.944 48.6889C118.706 47.9901 118.356 47.4574 117.896 47.0909C117.444 46.7159 116.895 46.5284 116.247 46.5284C115.599 46.5284 115.041 46.7159 114.572 47.0909C114.112 47.4574 113.754 47.9901 113.498 48.6889C113.251 49.3793 113.128 50.2102 113.128 51.1818ZM138.939 61.358C136.842 61.358 135.035 60.9574 133.518 60.1562C132.01 59.3466 130.846 58.1875 130.028 56.679C129.219 55.1619 128.814 53.3466 128.814 51.233C128.814 49.2045 129.223 47.4318 130.041 45.9148C130.859 44.3977 132.014 43.2173 133.506 42.3736C134.997 41.5298 136.757 41.108 138.785 41.108C140.268 41.108 141.611 41.3381 142.812 41.7983C144.014 42.2585 145.041 42.9276 145.893 43.8054C146.746 44.6747 147.402 45.7315 147.862 46.9759C148.322 48.2202 148.552 49.6222 148.552 51.1818V52.8182H131.013V48.9318H142.058C142.05 48.3693 141.905 47.875 141.623 47.4489C141.351 47.0142 140.98 46.6776 140.511 46.4389C140.051 46.1918 139.527 46.0682 138.939 46.0682C138.368 46.0682 137.844 46.1918 137.366 46.4389C136.889 46.6776 136.506 47.0099 136.216 47.4361C135.935 47.8622 135.785 48.3608 135.768 48.9318V53.125C135.768 53.7557 135.9 54.3182 136.165 54.8125C136.429 55.3068 136.808 55.6946 137.302 55.9759C137.797 56.2571 138.393 56.3977 139.092 56.3977C139.578 56.3977 140.021 56.3295 140.422 56.1932C140.831 56.0568 141.18 55.8608 141.47 55.6051C141.76 55.3409 141.973 55.0256 142.109 54.6591H148.552C148.331 56.0227 147.807 57.2074 146.98 58.2131C146.153 59.2102 145.058 59.9858 143.694 60.5398C142.339 61.0852 140.754 61.358 138.939 61.358ZM165.443 43C165.375 42.1477 165.056 41.483 164.485 41.0057C163.922 40.5284 163.066 40.2898 161.915 40.2898C161.182 40.2898 160.581 40.3793 160.112 40.5582C159.652 40.7287 159.311 40.9631 159.09 41.2614C158.868 41.5597 158.753 41.9006 158.745 42.2841C158.727 42.5994 158.783 42.8849 158.911 43.1406C159.047 43.3878 159.26 43.6136 159.55 43.8182C159.84 44.0142 160.21 44.1932 160.662 44.3551C161.114 44.517 161.651 44.6619 162.273 44.7898L164.421 45.25C165.87 45.5568 167.11 45.9616 168.141 46.4645C169.172 46.9673 170.016 47.5597 170.672 48.2415C171.328 48.9148 171.81 49.6733 172.117 50.517C172.432 51.3608 172.594 52.2812 172.602 53.2784C172.594 55 172.164 56.4574 171.311 57.6506C170.459 58.8438 169.24 59.7514 167.655 60.3736C166.078 60.9957 164.182 61.3068 161.966 61.3068C159.691 61.3068 157.705 60.9702 156.009 60.2969C154.321 59.6236 153.009 58.5881 152.071 57.1903C151.142 55.7841 150.673 53.9858 150.665 51.7955H157.415C157.458 52.5966 157.658 53.2699 158.016 53.8153C158.374 54.3608 158.877 54.7741 159.524 55.0554C160.181 55.3366 160.96 55.4773 161.864 55.4773C162.622 55.4773 163.257 55.3835 163.769 55.196C164.28 55.0085 164.668 54.7486 164.932 54.4162C165.196 54.0838 165.333 53.7045 165.341 53.2784C165.333 52.8778 165.2 52.5284 164.945 52.2301C164.698 51.9233 164.289 51.6506 163.718 51.4119C163.147 51.1648 162.375 50.9347 161.404 50.7216L158.796 50.1591C156.477 49.6562 154.649 48.8168 153.311 47.6406C151.982 46.456 151.321 44.8409 151.33 42.7955C151.321 41.1335 151.764 39.6804 152.659 38.4361C153.563 37.1832 154.811 36.2074 156.405 35.5085C158.007 34.8097 159.844 34.4602 161.915 34.4602C164.029 34.4602 165.857 34.8139 167.399 35.5213C168.942 36.2287 170.131 37.2259 170.966 38.5128C171.81 39.7912 172.236 41.2869 172.245 43H165.443ZM181.088 61H173.417L182.06 34.8182H191.775L200.417 61H192.747L187.02 42.0284H186.815L181.088 61ZM179.656 50.6705H194.077V55.9886H179.656V50.6705ZM202.939 61V34.8182H221.348V40.5455H210.047V45.0455H220.223V50.7727H210.047V61H202.939ZM223.963 61V34.8182H242.832V40.5455H231.071V45.0455H241.86V50.7727H231.071V55.2727H242.781V61H223.963Z" fill="#505050"/>
<g clip-path="url(#clip0_11_101)">
<path d="M27.6124 54.925C34.7307 57.1682 42.1452 58.3106 49.6032 58.3133C57.0612 58.3106 64.4757 57.1682 71.5939 54.925C72.1581 54.7481 72.5857 54.2814 72.7159 53.7005C72.846 53.1196 72.6588 52.5128 72.2248 52.1088C71.7908 51.7048 71.1759 51.5648 70.6118 51.7417C56.9368 56.0583 42.2795 56.0583 28.6045 51.7417C27.7324 51.4683 26.8056 51.9593 26.5344 52.8383C26.2632 53.7174 26.7503 54.6516 27.6224 54.925H27.6124Z" fill="#505050"/>
<path d="M27.8538 44.98C35.0501 46.1018 42.3214 46.6623 49.6032 46.6566C56.8849 46.6623 64.1563 46.1018 71.3525 44.98C71.9418 44.8946 72.4401 44.4964 72.657 43.9375C72.8739 43.3786 72.776 42.7453 72.4006 42.2795C72.0253 41.8136 71.4304 41.5872 70.8433 41.6866C56.766 43.87 42.4403 43.87 28.3631 41.6866C27.4668 41.5568 26.6335 42.1778 26.4941 43.0797C26.3546 43.9816 26.9608 44.8287 27.8538 44.98Z" fill="#505050"/>
<path d="M70.3853 63.5C57.2713 69.9584 41.9351 69.9584 28.8211 63.5C28.2836 63.1957 27.6228 63.218 27.1068 63.558C26.5908 63.8979 26.3052 64.499 26.366 65.1173C26.4267 65.7357 26.8237 66.2686 27.3958 66.5C41.4094 73.4002 57.7969 73.4002 71.8105 66.5C72.3827 66.2686 72.7796 65.7357 72.8404 65.1173C72.9011 64.499 72.6156 63.8979 72.0995 63.558C71.5835 63.218 70.9227 63.1957 70.3853 63.5Z" fill="#505050"/>
<path d="M92.5926 30H84.0212C83.323 28.0094 81.4596 26.6754 79.3651 26.6667H76.8684C70.7278 26.5858 64.9502 23.7207 61.1392 18.8667C58.3159 15.3676 54.0793 13.3362 49.6048 13.3362C45.1303 13.3362 40.8937 15.3676 38.0704 18.8667C34.2586 23.7214 28.4796 26.5866 22.338 26.6667H19.8413C17.7467 26.6754 15.8834 28.0094 15.1852 30H6.61375C2.96108 30 -3.8147e-06 32.9848 -3.8147e-06 36.6667V45C-3.8147e-06 53.76 7.78108 61.8217 17.2255 63.135C21.8883 75.9817 33.3839 85.0448 46.8766 86.5117C48.6896 86.7185 50.52 86.7185 52.333 86.5117C65.8245 85.0436 77.3185 75.9807 81.9808 63.135C91.4253 61.8217 99.2063 53.76 99.2063 45V36.6667C99.2063 32.9848 96.2453 30 92.5926 30ZM19.8413 30H22.338C29.4757 29.9198 36.1975 26.6015 40.6366 20.9667C42.8312 18.2446 46.1258 16.6642 49.6056 16.6642C53.0855 16.6642 56.3801 18.2446 58.5747 20.9667C63.0121 26.6009 69.7322 29.9192 76.8684 30H79.3651C80.2782 30 81.0185 30.7462 81.0185 31.6667V33.3333L76.0582 33.325H76.0251C68.1607 33.1118 60.8083 29.345 56.002 23.0667C54.4334 21.1234 52.0792 19.9966 49.5938 19.9995C47.1085 20.0024 44.7569 21.1347 43.1928 23.0817C38.3885 29.3511 31.0425 33.111 23.1862 33.3217H23.1481L18.1878 33.3333V31.6667C18.1878 30.7462 18.9281 30 19.8413 30ZM3.30687 45V36.6667C3.30687 34.8257 4.78741 33.3333 6.61375 33.3333H14.8809V50C14.8862 53.2194 15.3001 56.4249 16.1128 59.5383C9.54365 57.9433 3.30687 52.2867 3.30687 45ZM51.9874 83.1967C50.4029 83.3767 48.8034 83.3767 47.2189 83.1967C34.6557 81.8144 24.041 73.1852 20.0397 61.1017V61.085C18.8195 57.5184 18.1937 53.7727 18.1878 50V36.6667L23.1481 36.6583C32.0194 36.484 40.3343 32.2661 45.7589 25.1883C46.6956 24.0197 48.1054 23.3394 49.5959 23.3368C51.0864 23.3342 52.4985 24.0096 53.4391 25.175C58.8713 32.2294 67.1635 36.4463 76.0202 36.6583H76.0582L81.0185 36.6667V50C81.0139 53.7713 80.3898 57.5158 79.1716 61.0817V61.0983C75.1707 73.1847 64.5533 81.8157 51.9874 83.1967ZM95.8995 45C95.8995 52.2867 89.6627 57.9433 83.0936 59.5417C83.9065 56.4271 84.3204 53.2205 84.3254 50V33.3333H92.5926C94.4189 33.3333 95.8995 34.8257 95.8995 36.6667V45Z" fill="#505050"/>
</g>
<defs>
<clipPath id="clip0_11_101">
<rect width="99.2064" height="100" fill="white"/>
</clipPath>
</defs>
</svg>
